<svg width="1366" height="268" viewBox="0 0 1366 268" fill="none" xmlns="http://www.w3.org/2000/svg">
<path d="M1366.14 188.3C1282.87 252.87 1173.33 240.26 1105.99 185.05C1046.73 136.46 890.04 66.42 801.04 182.38C755.52 241.7 675.94 235.1 609.05 214.5C551.22 196.69 504.32 154.74 477.99 100.26C456.76 56.34 412.93 19.7 353.77 25.22C319.94 28.38 303.67 39.4 278.44 48.69C233.78 65.13 183.53 57.1 146.61 27.19C73.43 -32.09 0 25.22 0 25.22V267.54H1366.14M110.95 73.72C99.04 89.31 85.39 97.85 72.04 102.13C34.27 114.24 12.47 61 48.89 45.61C87.59 29.25 137.1 39.48 110.94 73.72H110.95ZM166.26 124.86C154.11 124.86 144.25 115.48 144.25 103.91C144.25 92.34 154.1 82.96 166.26 82.96C178.41 82.96 188.27 92.34 188.27 103.91C188.27 115.48 178.42 124.86 166.26 124.86ZM84.12 151.71C78.67 151.71 74.25 147.5 74.25 142.31C74.25 137.12 78.67 132.91 84.12 132.91C89.57 132.91 93.99 137.12 93.99 142.31C93.99 147.5 89.57 151.71 84.12 151.71ZM945.73 170.5C940.28 170.5 935.86 166.29 935.86 161.1C935.86 155.91 940.28 151.7 945.73 151.7C951.18 151.7 955.6 155.91 955.6 161.1C955.6 166.29 951.18 170.5 945.73 170.5ZM895.42 196.32C884.91 196.32 876.38 188.2 876.38 178.19C876.38 168.18 884.9 160.06 895.42 160.06C905.94 160.06 914.46 168.18 914.46 178.19C914.46 188.2 905.94 196.32 895.42 196.32Z" fill="#0E0E0E"/>
<path d="M652 176.35C649.76 186.64 656.02 196.74 666.56 199.85C678.87 203.49 696.63 202.76 714.76 181.55C745.61 145.45 666.17 111.26 652 176.35Z" fill="#0E0E0E"/>
<path d="M759.06 158.87C764.682 158.87 769.24 154.532 769.24 149.18C769.24 143.828 764.682 139.49 759.06 139.49C753.438 139.49 748.88 143.828 748.88 149.18C748.88 154.532 753.438 158.87 759.06 158.87Z" fill="#0E0E0E"/>
<path d="M1221.88 163.08C1220.59 170.75 1223.45 177.99 1229.22 182.83C1239.76 191.67 1261.84 203.07 1295.06 185.29C1343.35 159.45 1318.89 126.46 1289.31 145.93C1261.26 164.4 1226.17 137.68 1221.88 163.09V163.08Z" fill="#0E0E0E"/>
</svg>
