<svg width="21" height="21" viewBox="0 0 21 21" fill="none" xmlns="http://www.w3.org/2000/svg">
<path d="M21 10.5C21.0074 12.0668 20.6587 13.6148 19.98 15.027C19.3209 16.4183 18.3611 17.6458 17.17 18.621C15.9883 19.593 14.6074 20.2932 13.125 20.672V12.684H15.371L15.75 10.059H13.125V7.75204C13.0998 7.59375 13.1117 7.43176 13.1598 7.27885C13.2079 7.12595 13.2909 6.98633 13.4022 6.87102C13.5136 6.7557 13.6502 6.66785 13.8013 6.6144C13.9524 6.56096 14.1139 6.54337 14.273 6.56304H15.944V4.12304C15.3231 3.9971 14.6904 3.93876 14.057 3.94904C13.0301 3.87803 12.0167 4.21511 11.237 4.88704C10.9061 5.22048 10.6486 5.61938 10.4808 6.05816C10.3131 6.49694 10.2389 6.96592 10.263 7.43504V10.06H7.87499V12.685H10.264V21C8.88389 20.9777 7.52284 20.6742 6.26399 20.108C5.04224 19.5698 3.93288 18.8062 2.99399 17.857C2.06132 16.8987 1.32006 15.7712 0.809994 14.535C0.270984 13.2583 -0.00452736 11.8859 -6.28255e-06 10.5C-0.00411975 9.0989 0.278687 7.71175 0.830994 6.42404C1.35507 5.17272 2.11563 4.03425 3.07099 3.07104C4.0342 2.11568 5.17267 1.35512 6.42399 0.831044C7.7117 0.278737 9.09885 -0.00406923 10.5 4.42363e-05C11.9011 -0.00406923 13.2883 0.278737 14.576 0.831044C15.8273 1.35512 16.9658 2.11568 17.929 3.07104C18.8844 4.03425 19.6449 5.17272 20.169 6.42404C20.7213 7.71175 21.0041 9.0989 21 10.5Z" fill="white"/>
</svg>
