<svg width="217" height="109" viewBox="0 0 217 109" fill="none" xmlns="http://www.w3.org/2000/svg">
<path d="M0.393982 72.969V75.487H3.76798V84.553H6.87398V75.487H10.266V72.969H0.393982Z" fill="#2C2C2C"/>
<path d="M25.029 77.25H20.409V72.969H17.302V84.553H20.409V79.768H25.029V84.553H28.129V72.969H25.029V77.25Z" fill="#2C2C2C"/>
<path d="M35.939 84.5531H44.539V82.0351H39.049V79.8691H43.666V77.3691H39.046V75.4891H44.536V72.9711H35.936L35.939 84.5531Z" fill="#2C2C2C"/>
<path d="M65.859 79.5671H70.476V84.3521H73.582V72.7681H70.476V77.0491H65.859V72.7681H62.753V84.3521H65.859V79.5671Z" fill="#2C2C2C"/>
<path d="M84.228 81.904H88.14L88.929 84.355H92.27L88.17 72.686H84.258L80.158 84.355H83.448L84.228 81.904ZM86.159 75.876H86.276L87.367 79.435H85.05L86.159 75.876Z" fill="#2C2C2C"/>
<path d="M109.026 79.987L106.155 79.687C106.021 81.248 105.265 82.037 103.805 82.037C102.005 82.037 101.236 80.61 101.236 78.562C101.236 76.497 101.941 75.087 103.736 75.087C104.039 75.0608 104.345 75.1007 104.632 75.2039C104.918 75.3072 105.179 75.4714 105.396 75.6852C105.613 75.8989 105.781 76.1572 105.889 76.4422C105.996 76.7272 106.041 77.0322 106.019 77.336L108.991 76.983C109.025 74.012 106.758 72.568 103.804 72.568C99.976 72.568 98.062 74.851 98.062 78.562C98.062 82.339 99.976 84.555 103.804 84.555C107.027 84.555 109.025 82.608 109.025 79.989" fill="#2C2C2C"/>
<path d="M116.178 72.7681V84.3521H119.284V81.1121L120.442 79.8191L123.161 84.3521H126.871L122.557 77.3841L126.536 72.7681H122.607L120.407 75.7231L119.282 77.3681V72.7681H116.178Z" fill="#2C2C2C"/>
<path d="M133.371 84.352H141.971V81.834H136.481V79.668H141.098V77.168H136.481V75.288H141.971V72.77H133.371V84.352Z" fill="#2C2C2C"/>
<path d="M159.144 84.184L156.827 79.835C157.521 79.6113 158.12 79.1595 158.525 78.5531C158.93 77.9466 159.119 77.221 159.06 76.494C159.06 73.741 157.314 72.767 154.813 72.767H149.189V84.351H152.295V80.221H153.671L155.719 84.351H159.144V84.184ZM154.36 77.703H152.295V75.285H154.36C155.518 75.285 155.888 75.822 155.888 76.494C155.888 77.166 155.519 77.703 154.36 77.703Z" fill="#2C2C2C"/>
<path d="M176.807 76.7791H176.874V84.3511H179.98V72.7681H175.43L173.297 80.7261L170.947 72.7681H166.347V84.3521H169.42V76.7791H169.487L171.687 84.3681H174.776L176.807 76.7791Z" fill="#2C2C2C"/>
<path d="M190.66 72.683L186.56 84.352H189.85L190.622 81.901H194.534L195.323 84.352H198.664L194.564 72.683H190.66ZM191.449 79.432L192.557 75.873H192.675L193.767 79.432H191.449Z" fill="#2C2C2C"/>
<path d="M213.274 72.7681V79.5841L208.422 72.7681H205.249V84.3521H208.271V77.4691L213.139 84.3521H216.296V72.7681H213.274Z" fill="#2C2C2C"/>
<path d="M31.53 107.969H34.636V103.669H39.253V101.151H34.637V98.907H40.127V96.389H31.527L31.53 107.969Z" fill="#2C2C2C"/>
<path d="M51.997 96.183C47.997 96.183 46.071 98.836 46.071 102.177C46.071 105.518 48.002 108.17 51.997 108.17C55.992 108.17 57.923 105.518 57.923 102.177C57.923 98.836 55.992 96.183 51.997 96.183ZM51.997 105.652C50.15 105.652 49.227 104.242 49.227 102.177C49.227 100.112 50.15 98.702 51.997 98.702C53.844 98.702 54.767 100.112 54.767 102.177C54.767 104.242 53.844 105.652 51.997 105.652Z" fill="#2C2C2C"/>
<path d="M71.843 103.47C71.843 103.746 71.7887 104.019 71.6831 104.274C71.5776 104.528 71.4229 104.76 71.2279 104.955C71.0329 105.15 70.8014 105.305 70.5466 105.41C70.2918 105.516 70.0188 105.57 69.743 105.57C69.4672 105.57 69.1941 105.516 68.9393 105.41C68.6846 105.305 68.4531 105.15 68.2581 104.955C68.0631 104.76 67.9084 104.528 67.8028 104.274C67.6973 104.019 67.643 103.746 67.643 103.47V96.385H64.537V103.52C64.537 106.609 66.67 108.17 69.737 108.17C72.804 108.17 74.937 106.609 74.937 103.52V96.385H71.831L71.843 103.47Z" fill="#2C2C2C"/>
<path d="M90.194 103.201L85.342 96.385H82.169V107.969H85.191V101.086L90.059 107.969H93.216V96.385H90.194V103.201Z" fill="#2C2C2C"/>
<path d="M105.575 96.385H100.538V107.969H105.575C109.453 107.969 110.964 105.182 110.964 102.16C110.964 99.155 109.453 96.385 105.575 96.385ZM105.475 105.451H103.645V98.907H105.475C107.053 98.907 107.809 100.166 107.809 102.181C107.809 104.181 107.053 105.455 105.475 105.455" fill="#2C2C2C"/>
<path d="M120.385 96.3L116.285 107.969H119.575L120.347 105.518H124.259L125.048 107.969H128.389L124.289 96.3H120.385ZM121.174 103.049L122.282 99.49H122.399L123.49 103.049H121.174Z" fill="#2C2C2C"/>
<path d="M131.992 98.907H135.366V107.973H138.472V98.907H141.863V96.389H131.992V98.907Z" fill="#2C2C2C"/>
<path d="M151.514 96.385H148.408V107.969H151.514V96.385Z" fill="#2C2C2C"/>
<path d="M163.149 96.183C159.149 96.183 157.223 98.836 157.223 102.177C157.223 105.518 159.154 108.17 163.149 108.17C167.144 108.17 169.075 105.518 169.075 102.177C169.075 98.836 167.144 96.183 163.149 96.183ZM163.149 105.652C161.302 105.652 160.379 104.242 160.379 102.177C160.379 100.112 161.302 98.702 163.149 98.702C164.996 98.702 165.919 100.112 165.919 102.177C165.919 104.242 164.995 105.652 163.149 105.652Z" fill="#2C2C2C"/>
<path d="M182.138 103.201L177.286 96.385H174.113V107.969H177.135V101.086L182.003 107.969H185.16V96.385H182.138V103.201Z" fill="#2C2C2C"/>
<path d="M142.454 19.473C141.726 22.019 140.708 22.042 134.015 22.042H132.377V26.182H134.017C140.709 26.182 141.655 26.093 142.383 28.639L143.256 31.694H144.711V16.782H143.256L142.454 19.473Z" fill="#2C2C2C"/>
<path d="M110.079 1.94902L112.189 2.53202C115.099 3.33202 115.681 3.98702 115.681 9.88002V22.042H99.686C96.792 22.042 94.58 20.32 94.58 17.036V9.89402C94.58 4.00202 95.16 3.34802 98.072 2.54602L100.179 1.96602V0.506019H76.828V1.96202L78.938 2.54202C81.847 3.34202 82.427 3.99802 82.427 9.89002V40.219C82.427 46.111 81.847 46.765 78.938 47.564L76.828 48.147V49.6H100.174V48.146L98.067 47.563C95.155 46.763 94.575 46.11 94.575 40.218V31.206C94.575 27.922 96.787 26.2 99.681 26.2L115.676 26.185V40.217C115.676 46.109 115.094 46.764 112.184 47.564L110.074 48.145V49.6H134.882V48.145L131.322 47.494C128.339 46.911 127.83 46.112 127.83 40.22V26.183V22.043V7.52602C127.83 6.60678 128.195 5.72519 128.845 5.07519C129.495 4.42519 130.377 4.06002 131.296 4.06002H133.796C141.944 4.06002 143.691 4.78702 144.272 7.47802L145.145 11.406H146.964V0.494019H110.079V1.94902Z" fill="#2C2C2C"/>
</svg>
