<svg width="21" height="21" viewBox="0 0 21 21" fill="none" xmlns="http://www.w3.org/2000/svg">
<path d="M8.95198 8.96205C8.74676 9.16154 8.58449 9.40088 8.47512 9.66536C8.36575 9.92984 8.31159 10.2139 8.31598 10.5001C8.31155 10.7874 8.36616 11.0726 8.47642 11.338C8.58668 11.6035 8.75024 11.8434 8.95698 12.0431C9.15662 12.2498 9.39658 12.4134 9.66199 12.5236C9.9274 12.6339 10.2126 12.6885 10.5 12.6841C10.7873 12.6885 11.0726 12.6339 11.338 12.5236C11.6034 12.4134 11.8433 12.2498 12.043 12.0431C12.2497 11.8434 12.4133 11.6035 12.5235 11.338C12.6338 11.0726 12.6884 10.7874 12.684 10.5001C12.6884 10.2127 12.6338 9.92747 12.5235 9.66206C12.4133 9.39665 12.2497 9.15669 12.043 8.95705C11.8433 8.75031 11.6034 8.58674 11.338 8.47649C11.0726 8.36623 10.7873 8.31162 10.5 8.31605C10.2115 8.31229 9.92534 8.36768 9.6591 8.47878C9.39286 8.58989 9.15221 8.75436 8.95198 8.96205ZM15.309 6.12205C15.3091 6.06598 15.2978 6.01048 15.2758 5.95891C15.2538 5.90735 15.2215 5.86078 15.181 5.82205C15.1423 5.78151 15.0957 5.74926 15.0441 5.72726C14.9925 5.70526 14.937 5.69396 14.881 5.69405H13.566C13.5078 5.69289 13.4501 5.70365 13.3962 5.72566C13.3424 5.74768 13.2937 5.78048 13.253 5.82205C13.2124 5.86078 13.1802 5.90735 13.1582 5.95891C13.1362 6.01048 13.1249 6.06598 13.125 6.12205V7.43505C13.1238 7.4932 13.1346 7.55097 13.1566 7.6048C13.1786 7.65863 13.2114 7.70738 13.253 7.74805C13.2937 7.78962 13.3424 7.82243 13.3962 7.84444C13.4501 7.86645 13.5078 7.87721 13.566 7.87605H14.879C14.935 7.87614 14.9906 7.86484 15.0421 7.84284C15.0937 7.82084 15.1403 7.78859 15.179 7.74805C15.2206 7.70738 15.2534 7.65863 15.2754 7.6048C15.2974 7.55097 15.3081 7.4932 15.307 7.43505L15.309 6.12205ZM13.894 9.62905C13.9638 9.91437 13.9974 10.2073 13.994 10.5011C14.0011 10.9607 13.9143 11.4169 13.7389 11.8418C13.5635 12.2667 13.3032 12.6513 12.974 12.9721C12.6541 13.3038 12.2694 13.5662 11.8438 13.743C11.4182 13.9199 10.9608 14.0074 10.5 14.0001C10.0388 14.0075 9.58095 13.92 9.155 13.743C8.72904 13.566 8.34406 13.3032 8.02398 12.9711C7.69402 12.6506 7.43299 12.2662 7.25691 11.8413C7.08082 11.4163 6.9934 10.96 6.99998 10.5001C6.99659 10.2063 7.03019 9.91337 7.09998 9.62805H5.69098V14.8781C5.69089 14.9341 5.70219 14.9896 5.72419 15.0412C5.7462 15.0928 5.77845 15.1393 5.81898 15.1781C5.85772 15.2186 5.90428 15.2508 5.95585 15.2728C6.00742 15.2948 6.06292 15.3061 6.11898 15.3061H14.876C14.932 15.3061 14.9876 15.2948 15.0391 15.2728C15.0907 15.2508 15.1373 15.2186 15.176 15.1781C15.2165 15.1393 15.2488 15.0928 15.2708 15.0412C15.2928 14.9896 15.3041 14.9341 15.304 14.8781V9.62805L13.894 9.62905ZM6.41898 0.829051C7.70868 0.277737 9.09739 -0.0043617 10.5 5.0979e-05C11.9011 -0.00406248 13.2883 0.278744 14.576 0.83105C15.8273 1.35512 16.9658 2.11569 17.929 3.07105C18.8843 4.03425 19.6449 5.17272 20.169 6.42405C20.7213 7.71175 21.0041 9.09891 21 10.5001C21.0041 11.9012 20.7213 13.2883 20.169 14.5761C19.6449 15.8274 18.8843 16.9658 17.929 17.9291C16.9658 18.8844 15.8273 19.645 14.576 20.1691C13.2883 20.7214 11.9011 21.0042 10.5 21.0001C9.09884 21.0042 7.71169 20.7214 6.42398 20.1691C5.17265 19.645 4.03418 18.8844 3.07098 17.9291C2.11562 16.9658 1.35506 15.8274 0.830983 14.5761C0.278677 13.2883 -0.00413026 11.9012 -1.6799e-05 10.5001C-0.00413026 9.09891 0.278677 7.71175 0.830983 6.42405C1.35506 5.17272 2.11562 4.03425 3.07098 3.07105C4.03294 2.11651 5.16961 1.35602 6.41898 0.83105V0.829051ZM16.619 14.8771V6.12005C16.6232 5.89025 16.5804 5.66202 16.493 5.44944C16.4056 5.23685 16.2756 5.04443 16.111 4.88405C15.9506 4.71942 15.7582 4.58941 15.5456 4.50204C15.333 4.41466 15.1048 4.37179 14.875 4.37605H6.12198C5.89219 4.37179 5.66395 4.41466 5.45137 4.50204C5.23879 4.58941 5.04637 4.71942 4.88598 4.88405C4.72135 5.04443 4.59134 5.23685 4.50397 5.44944C4.4166 5.66202 4.37372 5.89025 4.37798 6.12005V14.8771C4.37372 15.1068 4.4166 15.3351 4.50397 15.5477C4.59134 15.7602 4.72135 15.9527 4.88598 16.1131C5.04637 16.2777 5.23879 16.4077 5.45137 16.4951C5.66395 16.5824 5.89219 16.6253 6.12198 16.621H14.879C15.1088 16.6253 15.337 16.5824 15.5496 16.4951C15.7622 16.4077 15.9546 16.2777 16.115 16.1131C16.2793 15.9527 16.4091 15.7604 16.4963 15.548C16.5835 15.3356 16.6262 15.1076 16.622 14.8781L16.619 14.8771Z" fill="white"/>
</svg>
