<svg viewBox="0 0 40 38" xmlns="http://www.w3.org/2000/svg">
<path d="M15.3517 25.3075H13.4862C13.0887 25.3075 12.7217 25.4776 12.4465 25.7404C12.1866 26.0187 12.0184 26.3742 12.0184 26.7917C12.0184 27.2091 12.1866 27.5646 12.4465 27.8275C12.7064 28.1057 13.0734 28.2603 13.4862 28.2603H34.7554C35.2447 28.2603 35.6422 28.6623 35.6422 29.157C35.6422 29.6517 35.2447 30.0537 34.7554 30.0537H13.4862C12.5994 30.0537 11.789 29.6826 11.1927 29.0952C10.6116 28.5077 10.2447 27.6883 10.2447 26.7917C10.2447 25.895 10.6116 25.0756 11.1927 24.4882C11.3762 24.3026 11.5902 24.1326 11.8043 23.9934C11.6208 23.6533 11.4832 23.2668 11.4067 22.8649L9.29664 11.4247L7.82875 3.49385C7.76759 3.18466 7.64527 2.89092 7.46178 2.72087C7.33946 2.59719 7.18655 2.51989 7.00306 2.51989H1.59022C1.10092 2.51989 0.703369 2.11794 0.703369 1.62323C0.703369 1.12852 1.10092 0.726562 1.59022 0.726562H7.01835C7.72172 0.726562 8.28747 1.00484 8.73089 1.43771C9.17432 1.88604 9.46484 2.50443 9.57187 3.1692L10.5199 8.28637C10.5199 8.28637 10.5658 8.28637 10.5963 8.28637H38.0122C38.0122 8.28637 38.1651 8.28637 38.2569 8.31729C38.5168 8.36367 38.7615 8.5028 38.945 8.68832C39.159 8.90476 39.3119 9.21395 39.3119 9.53861C39.3119 9.60044 39.3119 9.67774 39.2966 9.75504L36.8807 22.8803C36.7584 23.5451 36.4679 24.1635 36.0245 24.6118C35.581 25.0602 35.0153 25.3384 34.3119 25.3384H15.367L15.3517 25.3075Z" fill="#1D1F1F" stroke="#1D1F1F" stroke-width="0.92" stroke-miterlimit="10"/>
<path d="M31.2691 31.4604C31.6972 31.4604 32.11 31.5532 32.4923 31.7078C32.8746 31.8779 33.2262 32.1098 33.532 32.4035C33.8226 32.6972 34.0519 33.0528 34.2201 33.4548C34.373 33.8412 34.4648 34.2587 34.4648 34.6915C34.4648 35.1244 34.373 35.5418 34.2201 35.9283C34.0519 36.3148 33.8226 36.6704 33.532 36.9796C33.2415 37.2733 32.8898 37.5207 32.4923 37.6753C32.11 37.8299 31.6972 37.9226 31.2691 37.9226C30.8409 37.9226 30.4281 37.8299 30.0458 37.6753C29.6635 37.5207 29.3119 37.2733 29.0213 36.9796C28.7308 36.6858 28.5015 36.3303 28.3333 35.9283C28.1804 35.5418 28.0886 35.1244 28.0886 34.6915C28.0886 34.2587 28.1804 33.8412 28.3333 33.4548C28.5015 33.0528 28.7308 32.7127 29.0213 32.4035C29.3119 32.1098 29.6635 31.8779 30.0611 31.7078C30.4434 31.5532 30.8562 31.4604 31.2843 31.4604H31.2691ZM31.8195 33.362C31.6513 33.2847 31.4678 33.2538 31.2691 33.2538C31.0703 33.2538 30.8868 33.2847 30.7186 33.362C30.5504 33.4393 30.3822 33.5321 30.2599 33.6712C30.1376 33.8103 30.0305 33.9649 29.9541 34.135C29.8776 34.305 29.847 34.4906 29.847 34.6915C29.847 34.8925 29.8776 35.078 29.9541 35.2326C30.0305 35.4027 30.1376 35.5727 30.2599 35.6964C30.3822 35.8356 30.5351 35.9283 30.7186 36.0056C30.8868 36.0829 31.0703 36.1138 31.2691 36.1138C31.4678 36.1138 31.6513 36.0829 31.8042 36.0056C31.9724 35.9283 32.1406 35.8356 32.2629 35.6964C32.4005 35.5573 32.5076 35.4027 32.5687 35.2326C32.6452 35.0626 32.6758 34.877 32.6758 34.6761C32.6758 34.4751 32.6452 34.2896 32.5687 34.1195C32.4923 33.9495 32.4005 33.7794 32.2629 33.6557C32.1253 33.5166 31.9724 33.4084 31.8042 33.3311L31.8195 33.362Z" stroke-width="0.11" stroke-miterlimit="10"/>
<path d="M14.5413 31.4605C14.9694 31.4605 15.3822 31.5533 15.7645 31.7079C16.1468 31.8779 16.4985 32.1098 16.8043 32.4036C17.0948 32.6973 17.3241 33.0529 17.4923 33.4548C17.6452 33.8413 17.737 34.2587 17.737 34.6916C17.737 35.1245 17.6452 35.5419 17.4923 35.9284C17.3241 36.3149 17.0948 36.6705 16.8043 36.9796C16.5137 37.2734 16.1621 37.5207 15.7798 37.6753C15.3975 37.8299 14.9847 37.9227 14.5566 37.9227C14.1284 37.9227 13.7156 37.8299 13.3333 37.6753C12.9511 37.5207 12.5994 37.2734 12.2936 36.9796C12.003 36.6859 11.7584 36.3303 11.6055 35.9284C11.4373 35.5419 11.3608 35.1245 11.3608 34.6916C11.3608 34.2587 11.4373 33.8413 11.6055 33.4548C11.7584 33.0529 12.003 32.7128 12.2936 32.4036C12.5841 32.0944 12.9358 31.8625 13.3333 31.6924C13.7156 31.5378 14.1284 31.4451 14.5566 31.4451L14.5413 31.4605ZM15.0917 33.3621C14.9235 33.2848 14.74 33.2539 14.5413 33.2539C14.3425 33.2539 14.159 33.2848 13.9908 33.3621C13.8226 33.4394 13.6697 33.5321 13.5321 33.6713C13.3945 33.8104 13.2874 33.965 13.2263 34.1351C13.1498 34.3051 13.1192 34.4906 13.1192 34.6916C13.1192 34.8926 13.1498 35.0781 13.2263 35.2327C13.3027 35.4028 13.3945 35.5728 13.5321 35.6965C13.6697 35.8356 13.8226 35.9284 13.9908 36.0057C14.159 36.083 14.3425 36.1139 14.526 36.1139C14.7095 36.1139 14.9082 36.083 15.0764 36.0057C15.2446 35.9284 15.4128 35.8356 15.5352 35.6965C15.6728 35.5574 15.7645 35.4028 15.841 35.2327C15.9021 35.0626 15.948 34.8771 15.948 34.6762C15.948 34.4752 15.9174 34.2897 15.841 34.1196C15.7645 33.9495 15.6728 33.7795 15.5352 33.6558C15.3975 33.5167 15.2599 33.4085 15.0764 33.3312L15.0917 33.3621Z"  stroke-width="0.11" stroke-miterlimit="10"/>
</svg>
