<svg width="20" height="20" viewBox="0 0 20 20" fill="none" xmlns="http://www.w3.org/2000/svg">
<path d="M10 0C4.47715 0 0 4.47715 0 10C0 15.5228 4.47715 20 10 20C15.5228 20 20 15.5228 20 10C20 4.47715 15.5228 0 10 0Z" fill="#0089FF"/>
<path d="M10.567 14.123L14.608 10.083C14.6385 10.0451 14.6563 9.99857 14.659 9.95C14.6563 9.90143 14.6385 9.85492 14.608 9.817L10.567 5.776C10.5414 5.7503 10.5087 5.73271 10.4732 5.72542C10.4376 5.71812 10.4007 5.72146 10.367 5.735C10.3324 5.74771 10.3025 5.77093 10.2817 5.80141C10.261 5.83189 10.2502 5.86811 10.251 5.905V8.297H6.026C6.00152 8.29595 5.97708 8.29993 5.95421 8.3087C5.93133 8.31747 5.91049 8.33085 5.893 8.348C5.87585 8.3655 5.86247 8.38633 5.8537 8.40921C5.84492 8.43209 5.84094 8.45652 5.842 8.481V11.42C5.84094 11.4445 5.84492 11.4689 5.8537 11.4918C5.86247 11.5147 5.87585 11.5355 5.893 11.553C5.91049 11.5702 5.93133 11.5835 5.95421 11.5923C5.97708 11.6011 6.00152 11.6051 6.026 11.604H10.251V13.992C10.2493 14.0289 10.2591 14.0655 10.2792 14.0965C10.2993 14.1275 10.3286 14.1515 10.363 14.165C10.3973 14.1793 10.4351 14.1829 10.4715 14.1754C10.5079 14.1679 10.5411 14.1497 10.567 14.123Z" fill="white"/>
</svg>
