<svg width="20" height="20" viewBox="0 0 20 20" fill="none" xmlns="http://www.w3.org/2000/svg">
<path d="M15.8626 0.179443H3.83886C1.72092 0.179443 0.00415039 1.89296 0.00415039 4.00689V16.0079C0.00415039 18.1211 1.72092 19.8353 3.83886 19.8353H15.8626C17.9805 19.8353 19.6973 18.1218 19.6973 16.0079V4.00689C19.6973 1.89296 17.9805 0.179443 15.8626 0.179443ZM15.8224 7.29672C15.8266 7.42057 15.828 7.54512 15.8259 7.67038C15.7702 11.4922 12.7921 15.8559 7.46275 15.7785C5.82706 15.7545 4.31053 15.2542 3.04075 14.4147C3.26636 14.4442 3.49762 14.4618 3.73099 14.4654C5.08889 14.4851 6.34456 14.0403 7.34783 13.2796C6.08017 13.2381 5.02261 12.3866 4.6708 11.2318C4.84777 11.2677 5.02896 11.2881 5.21509 11.2909C5.47948 11.2952 5.73611 11.2635 5.97935 11.2009C4.65881 10.9159 3.67599 9.73294 3.69644 8.33187C3.69644 8.3199 3.69644 8.30794 3.69785 8.29598C4.08491 8.51835 4.52979 8.65487 5.00499 8.67668C4.23509 8.14679 3.73662 7.25449 3.75143 6.25101C3.75919 5.72182 3.90865 5.22642 4.16458 4.80278C5.56832 6.57331 7.68695 7.75553 10.0925 7.91035C10.046 7.69783 10.0242 7.47686 10.027 7.25027C10.0502 5.65356 11.3658 4.37775 12.9656 4.40097C13.7996 4.41293 14.5477 4.77534 15.068 5.34464C15.7293 5.22501 16.3533 4.99349 16.918 4.66908C16.6917 5.34182 16.2236 5.90197 15.6208 6.25031C16.2081 6.18908 16.7686 6.04131 17.2917 5.81893C16.8948 6.39316 16.3963 6.8956 15.8238 7.29531L15.8224 7.29672Z" fill="white"/>
</svg>
