<svg width="20" height="20" viewBox="0 0 20 20" fill="none" xmlns="http://www.w3.org/2000/svg">
<path d="M10.0463 7.63806C8.68064 7.63806 7.57373 8.74288 7.57373 10.106C7.57373 11.469 8.68064 12.5738 10.0463 12.5738C11.412 12.5738 12.5189 11.469 12.5189 10.106C12.5189 8.74288 11.412 7.63806 10.0463 7.63806Z" fill="white"/>
<path d="M13.2261 4.12085H6.86595C5.31063 4.12085 4.04932 5.37978 4.04932 6.93215V13.2803C4.04932 14.8326 5.31063 16.0916 6.86595 16.0916H13.2261C14.7821 16.0916 16.0427 14.8326 16.0427 13.2803V6.93215C16.0427 5.37907 14.7814 4.12085 13.2261 4.12085ZM10.0464 13.9129C7.93972 13.9129 6.23212 12.2085 6.23212 10.1059C6.23212 8.00319 7.93972 6.29882 10.0464 6.29882C12.153 6.29882 13.8613 8.00319 13.8613 10.1059C13.8613 12.2085 12.1537 13.9129 10.0464 13.9129ZM13.9882 7.04123C13.4975 7.04123 13.0992 6.64434 13.0992 6.15385C13.0992 5.66337 13.4968 5.26718 13.9882 5.26718C14.4797 5.26718 14.8766 5.66407 14.8766 6.15385C14.8766 6.64363 14.479 7.04123 13.9882 7.04123Z" fill="white"/>
<path d="M16.166 0.179443H4.14232C2.02439 0.179443 0.307617 1.89296 0.307617 4.00689V16.0079C0.307617 18.1211 2.02439 19.8353 4.14232 19.8353H16.166C18.284 19.8353 20.0008 18.1218 20.0008 16.0079V4.00689C20.0008 1.89296 18.284 0.179443 16.166 0.179443ZM17.397 13.1705C17.397 15.5097 15.497 17.4061 13.1534 17.4061H6.9385C4.59495 17.4061 2.69488 15.5097 2.69488 13.1705V6.96808C2.69488 4.62897 4.59495 2.73249 6.9385 2.73249H13.1534C15.497 2.73249 17.397 4.62897 17.397 6.96808V13.1705Z" fill="white"/>
</svg>
