<svg width="21" height="20" viewBox="0 0 21 20" fill="none" xmlns="http://www.w3.org/2000/svg">
<path d="M15.9233 0H4.11672C1.84297 0 0 1.83878 0 4.10823V15.8925C0 18.1619 1.84297 20.0007 4.11672 20.0007H9.30792V12.5217H6.78106V9.60205H9.30792V7.44872C9.30792 4.94916 10.8364 3.58819 13.0707 3.58819C14.141 3.58819 15.0603 3.66771 15.3275 3.7036V6.31575H13.7793C12.5652 6.31646 12.3283 6.89279 12.3283 7.73794V9.60276H15.226L14.8488 12.5224H12.329V20.0014H15.9233C18.1963 20.0014 20.0393 18.1626 20.0393 15.8932V4.10823C20.0393 1.83878 18.197 0 15.9233 0Z" fill="white"/>
</svg>
