<svg width="216" height="50" viewBox="0 0 216 50" fill="none" xmlns="http://www.w3.org/2000/svg">
<path d="M87.824 0V2.09H90.624V9.617H93.203V2.091H96.018V0H87.824Z" fill="white"/>
<path d="M108.272 0V3.554H104.44V0H101.862V9.617H104.44V5.644H108.272V9.617H110.85V0H108.272Z" fill="white"/>
<path d="M117.332 0V9.617H124.468V7.527H119.915V5.727H123.747V3.651H119.915V2.091H124.472V0H117.332Z" fill="white"/>
<path d="M94.878 23.205H91.046V19.651H88.467V29.267H91.046V25.295H94.878V29.268H97.456V19.651H94.878V23.205Z" fill="white"/>
<path d="M106.321 19.58L102.921 29.267H105.652L106.293 27.232H109.536L110.191 29.267H112.964L109.564 19.58H106.321ZM106.976 25.18L107.896 22.225H107.996L108.903 25.18H106.976Z" fill="white"/>
<path d="M122.545 27.344C121.053 27.344 120.412 26.159 120.412 24.459C120.412 22.759 120.998 21.574 122.489 21.574C122.741 21.5515 122.996 21.5841 123.234 21.6695C123.473 21.7549 123.69 21.891 123.87 22.0686C124.051 22.2461 124.191 22.4608 124.281 22.6978C124.37 22.9348 124.407 23.1884 124.389 23.441L126.856 23.148C126.884 20.682 125.002 19.483 122.549 19.483C119.371 19.483 117.782 21.383 117.782 24.459C117.782 27.595 119.372 29.434 122.549 29.434C125.225 29.434 126.883 27.818 126.883 25.644L124.5 25.393C124.388 26.693 123.762 27.344 122.549 27.344" fill="white"/>
<path d="M141.416 19.651H138.154L136.329 22.104L135.395 23.47V19.651H132.816V29.267H135.395V26.577L136.356 25.504L138.613 29.267H141.693L138.111 23.483L141.416 19.651Z" fill="white"/>
<path d="M154.224 27.177H149.667V25.377H153.499V23.302H149.667V21.741H154.224V19.651H147.088V29.267H154.224V27.177Z" fill="white"/>
<path d="M162.794 25.8359H163.937L165.637 29.2649H168.48V29.125L166.557 25.5149C167.133 25.3292 167.63 24.9542 167.966 24.4509C168.302 23.9475 168.459 23.3453 168.41 22.7419C168.41 20.4559 166.961 19.6479 164.884 19.6479H160.215V29.2649H162.794V25.8359ZM162.794 21.736H164.508C165.469 21.736 165.776 22.182 165.776 22.736C165.776 23.29 165.469 23.736 164.508 23.736H162.794V21.736Z" fill="white"/>
<path d="M185.781 29.267V19.651H182.004L180.233 26.257L178.282 19.651H174.463V29.267H177.014V22.981H177.069L178.895 29.281H181.459L183.146 22.981H183.201V29.267H185.781Z" fill="white"/>
<path d="M194.62 27.232H197.867L198.522 29.267H201.295L197.895 19.58H194.648L191.248 29.267H193.979L194.62 27.232ZM196.22 22.232H196.32L197.22 25.185H195.296L196.22 22.232Z" fill="white"/>
<path d="M209.267 23.553L213.308 29.268H215.929V19.651H213.42V25.309L209.392 19.651H206.758V29.267H209.267V23.553Z" fill="white"/>
<path d="M88.466 48.918H91.045V45.35H94.877V43.26H91.045V41.392H95.602V39.302H88.466V48.918Z" fill="white"/>
<path d="M105.457 39.134C102.14 39.134 100.537 41.334 100.537 44.11C100.537 46.886 102.137 49.085 105.457 49.085C108.777 49.085 110.377 46.885 110.377 44.11C110.377 41.335 108.777 39.134 105.457 39.134ZM105.457 46.995C103.924 46.995 103.157 45.824 103.157 44.11C103.157 42.396 103.923 41.225 105.457 41.225C106.991 41.225 107.757 42.396 107.757 44.11C107.757 45.824 106.99 46.995 105.457 46.995Z" fill="white"/>
<path d="M121.933 45.183C121.941 45.4167 121.902 45.6497 121.818 45.8679C121.734 46.0862 121.607 46.2853 121.444 46.4535C121.282 46.6216 121.087 46.7553 120.872 46.8467C120.656 46.938 120.425 46.985 120.191 46.985C119.957 46.985 119.726 46.938 119.51 46.8467C119.295 46.7553 119.1 46.6216 118.938 46.4535C118.775 46.2853 118.648 46.0862 118.564 45.8679C118.48 45.6497 118.441 45.4167 118.449 45.183V39.302H115.87V45.225C115.87 47.79 117.641 49.085 120.191 49.085C122.741 49.085 124.512 47.785 124.512 45.225V39.302H121.933V45.183Z" fill="white"/>
<path d="M137.166 44.96L133.138 39.302H130.504V48.918H133.013V43.203L137.054 48.918H139.675V39.302H137.166V44.96Z" fill="white"/>
<path d="M149.932 39.302H145.754V48.918H149.935C153.155 48.918 154.408 46.605 154.408 44.095C154.408 41.585 153.155 39.301 149.935 39.301M149.851 46.827H148.332V41.392H149.851C151.161 41.392 151.789 42.438 151.789 44.11C151.789 45.782 151.161 46.827 149.851 46.827Z" fill="white"/>
<path d="M162.227 39.231L158.827 48.918H161.562L162.203 46.883H165.451L166.106 48.918H168.879L165.479 39.231H162.227ZM162.882 44.831L163.802 41.876H163.902L164.809 44.831H162.882Z" fill="white"/>
<path d="M171.859 41.392H174.659V48.918H177.237V41.392H180.052V39.302H171.857L171.859 41.392Z" fill="white"/>
<path d="M188.069 39.302H185.49V48.918H188.069V39.302Z" fill="white"/>
<path d="M197.727 39.134C194.41 39.134 192.807 41.334 192.807 44.11C192.807 46.886 194.407 49.085 197.727 49.085C201.047 49.085 202.647 46.885 202.647 44.11C202.647 41.335 201.047 39.134 197.727 39.134ZM197.727 46.995C196.194 46.995 195.427 45.824 195.427 44.11C195.427 42.396 196.193 41.225 197.727 41.225C199.261 41.225 200.027 42.396 200.027 44.11C200.027 45.824 199.26 46.995 197.727 46.995Z" fill="white"/>
<path d="M213.491 39.302V44.96L209.463 39.302H206.829V48.918H209.338V43.203L213.379 48.918H216V39.302H213.491Z" fill="white"/>
<path d="M65.354 18.9019C64.63 21.4379 63.615 21.4609 56.954 21.4609H55.318V25.5849H56.95C63.615 25.5849 64.557 25.4969 65.281 28.0319L66.15 31.0739H67.599V16.2209H66.15L65.354 18.9019Z" fill="white"/>
<path d="M33.111 1.449L35.211 2.029C38.111 2.829 38.689 3.478 38.689 9.347V21.461H22.761C19.878 21.461 17.675 19.746 17.675 16.476V9.357C17.675 3.489 18.252 2.837 21.153 2.039L23.253 1.462V0.011H0V1.461L2.1 2.038C5 2.838 5.575 3.488 5.575 9.356V39.563C5.575 45.431 4.997 46.082 2.1 46.878L0 47.459V48.906H23.251V47.459L21.151 46.878C18.251 46.078 17.673 45.431 17.673 39.563V30.587C17.673 27.316 19.873 25.602 22.759 25.602L38.689 25.588V39.562C38.689 45.43 38.109 46.082 35.211 46.879L33.111 47.458V48.907H57.819V47.457L54.269 46.806C51.298 46.226 50.791 45.429 50.791 39.561V25.584V21.461V7C50.791 6.08447 51.1547 5.20644 51.8021 4.55907C52.4494 3.91169 53.3275 3.548 54.243 3.548H56.732C64.847 3.548 66.586 4.273 67.166 6.948L68.035 10.861H69.846V0H33.111V1.449Z" fill="white"/>
</svg>
