<svg width="40" height="31" viewBox="0 0 40 31" xmlns="http://www.w3.org/2000/svg">
<path d="M15.3517 25.3075H13.4862C13.0887 25.3075 12.7217 25.4776 12.4465 25.7404C12.1866 26.0187 12.0184 26.3742 12.0184 26.7917C12.0184 27.2091 12.1866 27.5646 12.4465 27.8275C12.7064 28.1057 13.0734 28.2603 13.4862 28.2603H34.7554C35.2447 28.2603 35.6422 28.6623 35.6422 29.157C35.6422 29.6517 35.2447 30.0537 34.7554 30.0537H13.4862C12.5994 30.0537 11.789 29.6826 11.1927 29.0952C10.6116 28.5077 10.2447 27.6883 10.2447 26.7917C10.2447 25.895 10.6116 25.0756 11.1927 24.4882C11.3762 24.3026 11.5902 24.1326 11.8043 23.9934C11.6208 23.6533 11.4832 23.2668 11.4067 22.8649L9.29664 11.4247L7.82875 3.49385C7.76759 3.18466 7.64527 2.89092 7.46178 2.72087C7.33946 2.59719 7.18655 2.51989 7.00306 2.51989H1.59022C1.10092 2.51989 0.703369 2.11794 0.703369 1.62323C0.703369 1.12852 1.10092 0.726562 1.59022 0.726562H7.01835C7.72172 0.726562 8.28747 1.00484 8.73089 1.43771C9.17432 1.88604 9.46484 2.50443 9.57187 3.1692L10.5199 8.28637C10.5199 8.28637 10.5658 8.28637 10.5963 8.28637H38.0122C38.0122 8.28637 38.1651 8.28637 38.2569 8.31729C38.5168 8.36367 38.7615 8.5028 38.945 8.68832C39.159 8.90476 39.3119 9.21395 39.3119 9.53861C39.3119 9.60044 39.3119 9.67774 39.2966 9.75504L36.8807 22.8803C36.7584 23.5451 36.4679 24.1635 36.0245 24.6118C35.581 25.0602 35.0153 25.3384 34.3119 25.3384H15.367L15.3517 25.3075Z" fill="#1D1F1F" stroke="#1D1F1F" stroke-width="0.92" stroke-miterlimit="10"/>
</svg>
