<svg width="1366" height="268" viewBox="0 0 1366 268" fill="none" xmlns="http://www.w3.org/2000/svg">
<path d="M0 79.24C83.27 14.67 192.81 27.28 260.15 82.49C319.41 131.08 476.1 201.12 565.1 85.16C610.62 25.84 690.2 32.44 757.09 53.04C814.92 70.85 861.82 112.8 888.15 167.28C909.38 211.2 953.21 247.84 1012.37 242.32C1046.2 239.16 1062.47 228.14 1087.7 218.85C1132.36 202.41 1182.61 210.44 1219.53 240.35C1292.71 299.63 1366.14 242.32 1366.14 242.32V0H0M1255.19 193.82C1267.1 178.23 1280.75 169.69 1294.1 165.41C1331.87 153.3 1353.67 206.54 1317.25 221.93C1278.55 238.29 1229.04 228.06 1255.2 193.82H1255.19ZM1199.88 142.68C1212.03 142.68 1221.89 152.06 1221.89 163.63C1221.89 175.2 1212.04 184.58 1199.88 184.58C1187.73 184.58 1177.87 175.2 1177.87 163.63C1177.87 152.06 1187.72 142.68 1199.88 142.68ZM1282.02 115.83C1287.47 115.83 1291.89 120.04 1291.89 125.23C1291.89 130.42 1287.47 134.63 1282.02 134.63C1276.57 134.63 1272.15 130.42 1272.15 125.23C1272.15 120.04 1276.57 115.83 1282.02 115.83ZM420.41 97.04C425.86 97.04 430.28 101.25 430.28 106.44C430.28 111.63 425.86 115.84 420.41 115.84C414.96 115.84 410.54 111.63 410.54 106.44C410.54 101.25 414.96 97.04 420.41 97.04ZM470.72 71.22C481.23 71.22 489.76 79.34 489.76 89.35C489.76 99.36 481.24 107.48 470.72 107.48C460.2 107.48 451.68 99.36 451.68 89.35C451.68 79.34 460.2 71.22 470.72 71.22Z" fill="#FFC639"/>
<path d="M714.14 91.19C716.38 80.9 710.12 70.8 699.58 67.69C687.27 64.05 669.51 64.78 651.38 85.99C620.53 122.09 699.97 156.28 714.14 91.19Z" fill="#FFC639"/>
<path d="M607.09 128.05C612.712 128.05 617.27 123.712 617.27 118.36C617.27 113.008 612.712 108.67 607.09 108.67C601.468 108.67 596.91 113.008 596.91 118.36C596.91 123.712 601.468 128.05 607.09 128.05Z" fill="#FFC639"/>
<path d="M161.55 94.58C162.84 86.91 159.98 79.67 154.21 74.83C143.67 65.99 121.59 54.59 88.37 72.37C40.08 98.21 64.54 131.2 94.12 111.73C122.17 93.26 157.26 119.98 161.55 94.57V94.58Z" fill="#FFC639"/>
</svg>
