<svg width="1366" height="843" viewBox="0 0 1366 843" fill="none" xmlns="http://www.w3.org/2000/svg">
<path d="M0 0H1366.8V817.69C1366.26 818.03 1365.71 818.36 1365.18 818.7C1344.84 831.81 1322.88 840.25 1298.52 841.79C1297.27 841.87 1296.05 842.35 1294.81 842.64H1290.01C1288.69 842 1287.27 841.8 1285.82 841.7C1267.72 840.54 1251.1 834.78 1235.62 825.5C1230.26 822.29 1225.14 818.73 1220.31 814.77C1201.92 799.69 1180.67 790.97 1157.45 786.76C1148.45 785.13 1139.32 784.88 1130.19 785.17C1118.77 785.53 1107.64 787.63 1096.72 790.94C1085.83 794.24 1075.46 798.92 1064.96 803.23C1057.56 806.27 1050.14 809.25 1042.44 811.46C1025.07 816.44 1007.47 818.8 989.34 816.92C969.94 814.9 952.33 808.12 936.31 797.36C919.61 786.15 906.31 771.55 895.89 754.32C891.99 747.87 888.91 741.01 885.36 734.39C874.18 713.53 860.23 694.76 843.16 678.25C831.94 667.4 819.74 657.94 806.56 649.67C791.29 640.08 775.01 632.76 757.73 627.64C747.91 624.73 738.05 621.99 728.08 619.66C714.82 616.56 701.37 614.35 687.8 613.57C674.56 612.81 661.27 612.68 648.04 614.44C630.04 616.83 613.16 622.4 597.56 631.72C584.88 639.29 574.6 649.49 565.55 661.05C559.43 668.86 552.9 676.27 545.41 682.86C534.17 692.75 522.08 701.24 508.48 707.6C487.89 717.23 466.33 722.49 443.58 722.79C439.1 722.85 434.62 722.75 430.14 722.81C420.34 722.94 410.67 721.54 401.04 719.99C386.96 717.72 373.2 714.01 359.66 709.59C340.29 703.28 321.76 695.09 303.87 685.3C288.24 676.74 273.5 666.93 259.61 655.82C250.09 648.2 239.97 641.51 229.25 635.72C220.64 631.08 211.65 627.33 202.54 623.82C182.2 615.99 161.08 611.82 139.39 610.62C124.67 609.81 109.98 610.7 95.39 612.95C80.29 615.27 65.71 619.44 51.58 625.17C36.56 631.27 22.22 638.65 9.16 648.35C7.49 649.59 5.75 650.73 4.08 651.97C2.82 652.9 1.48 653.12 0 652.62V0ZM1282.22 803.25C1289.77 803.65 1297.17 802.31 1304.49 800.53C1310.56 799.05 1316.45 796.99 1321.96 793.97C1330.08 789.52 1334.88 782.72 1336.44 773.62C1337.48 767.56 1336.17 761.82 1333.68 756.35C1327.3 742.29 1311.93 735.08 1297.44 739.43C1283.15 743.72 1271.03 751.49 1261.23 762.77C1258.19 766.27 1255.35 769.94 1253 773.97C1251.29 776.9 1250.07 779.99 1249.76 783.42C1249.22 789.6 1251.62 794.33 1256.8 797.64C1259.64 799.46 1262.7 800.79 1266.01 801.61C1271.33 802.93 1276.71 803.52 1282.22 803.25ZM1200.84 758.18C1201.64 758.18 1202.44 758.24 1203.24 758.18C1211.65 757.49 1217.76 753.36 1220.97 745.55C1224.37 737.28 1222.63 729.76 1216.33 723.54C1210.49 717.76 1203.15 716.29 1195.43 718.24C1182.37 721.54 1176.06 735.06 1181.56 746.4C1185.41 754.33 1192.02 758.2 1200.84 758.19V758.18ZM490.49 665.43C490.46 658.68 488.62 654.05 485.21 651.12C479.83 646.5 471.06 643.4 462.06 648.73C453.16 654.01 450.74 665.37 456.68 673.65C462.2 681.33 473.37 683.69 481.57 678.89C487.44 675.45 490.41 670.33 490.5 665.42L490.49 665.43ZM1283.47 708.24C1288.78 708.15 1292.73 704.21 1292.5 699.25C1292.27 694.38 1287.85 690.31 1282.97 690.48C1278.06 690.65 1273.86 694.98 1273.89 699.74C1273.91 703.51 1277.22 708.51 1283.46 708.23L1283.47 708.24ZM412.73 680.78C412.77 685.81 416.53 689.62 421.51 689.65C426.82 689.69 430.92 685.81 430.88 680.79C430.84 675.68 426.76 671.81 421.54 671.94C416.5 672.06 412.7 675.88 412.74 680.78H412.73Z" fill="#FFC639"/>
<path d="M143.5 680.44C139.83 680.55 136.17 680.24 132.51 679.91C125.35 679.26 118.17 679.08 111.02 680.34C105.75 681.27 100.88 683.11 96.29 685.81C94.09 687.1 91.86 688.37 89.56 689.48C85.91 691.24 82.03 692.08 77.97 692.08C75.55 692.08 73.19 691.66 70.94 690.78C65.49 688.65 62.36 684.08 62.25 678.23C62.16 673.58 63.69 669.45 66.21 665.63C69.69 660.35 74.32 656.19 79.44 652.58C86.39 647.69 93.79 643.62 101.87 640.85C112.34 637.25 122.98 635.87 133.93 638.17C142.06 639.88 149.35 643.37 155.7 648.72C162.48 654.43 165.02 663.35 162.42 671.71C160.83 676.83 157.4 679.83 152.11 680.38C149.27 680.67 146.37 680.43 143.5 680.43V680.44Z" fill="#FFC639"/>
<path d="M677.13 702.62C669.59 702.36 662.75 700.44 656.55 696.42C653.7 694.57 651.33 692.21 649.38 689.43C644.3 682.19 643.38 674.28 647.92 666.84C655.53 654.36 665.85 644.78 680.56 641.07C687.55 639.31 694.52 639.61 701.38 641.82C712.15 645.29 717.92 655.21 715.5 666.28C713.31 676.31 709.21 685.35 701.69 692.65C694.76 699.37 686.43 702.33 677.14 702.62H677.13Z" fill="#FFC639"/>
<path d="M608.28 702.52C602.33 702.45 597.84 697.92 598.04 692.19C598.22 686.87 603.06 682.6 608.72 682.75C614.29 682.9 618.78 687.45 618.74 692.9C618.7 698.23 613.96 702.59 608.28 702.52Z" fill="#FFC639"/>
</svg>
