<svg width="225" height="230" viewBox="0 0 225 230" fill="none" xmlns="http://www.w3.org/2000/svg">
<g clip-path="url(#clip0_2096_1384)">
<path d="M257.6 91.54H181.65L143.68 157.31L181.65 223.08H257.6L295.57 157.31L257.6 91.54Z" fill="#FEC34B"/>
<path d="M161.95 189.48C161.95 189.48 166.7 145.24 215.31 160.43C263.92 175.62 274.32 120.86 274.32 120.86L295.53 157.41L257.56 223.18H181.61L161.95 189.48Z" fill="#F9A348"/>
<path d="M253.33 91.54H185.92C183.28 91.54 180.84 92.95 179.52 95.24L145.81 153.62C144.49 155.91 144.49 158.72 145.81 161.01L179.52 219.39C180.84 221.68 183.28 223.09 185.92 223.09H253.33C255.97 223.09 258.41 221.68 259.73 219.39L293.44 161.01C294.76 158.72 294.76 155.91 293.44 153.62L259.73 95.24C258.41 92.95 255.97 91.54 253.33 91.54Z" stroke="#FEC34B" stroke-width="12.15" stroke-linejoin="round"/>
<path d="M118.85 6.08002H42.8999L4.92993 71.85L42.8999 137.62H118.85L156.82 71.85L118.85 6.08002Z" fill="#FEC34B"/>
<path d="M135.56 35.4C135.56 35.4 125.16 90.16 76.5499 74.97C27.9399 59.78 23.1899 104.02 23.1899 104.02L42.8499 137.73H118.8L156.77 71.96L135.56 35.41V35.4Z" fill="#F9A348"/>
<path d="M114.58 143.7H47.17C42.37 143.7 37.91 141.12 35.51 136.97L1.8 78.58C-0.6 74.43 -0.6 69.27 1.8 65.11L35.5 6.73C37.9 2.58 42.37 0 47.16 0H114.57C119.37 0 123.83 2.58 126.23 6.73L159.94 65.11C162.34 69.26 162.34 74.42 159.94 78.58L126.23 136.96C123.83 141.11 119.36 143.69 114.57 143.69L114.58 143.7ZM47.17 12.15C46.7 12.15 46.27 12.4 46.03 12.81L12.32 71.19C12.09 71.6 12.09 72.1 12.32 72.5L46.03 130.88C46.26 131.29 46.7 131.54 47.17 131.54H114.58C115.05 131.54 115.48 131.29 115.72 130.88L149.43 72.5C149.66 72.09 149.66 71.59 149.43 71.18L115.72 12.81C115.49 12.4 115.05 12.15 114.58 12.15H47.17Z" fill="#FEC34B"/>
</g>
<defs>
<clipPath id="clip0_2096_1384">
<rect width="300.5" height="229.16" fill="white"/>
</clipPath>
</defs>
</svg>
