<svg width="18" height="18" viewBox="0 0 18 18" fill="none" xmlns="http://www.w3.org/2000/svg">
<path d="M9.346 0.621002L17.337 8.612C17.3967 8.68683 17.4317 8.7784 17.437 8.874C17.4317 8.9696 17.3967 9.06117 17.337 9.136L9.346 17.128C9.2949 17.1797 9.22958 17.215 9.15834 17.2294C9.0871 17.2439 9.01318 17.2367 8.946 17.209C8.87718 17.1828 8.81838 17.1355 8.77798 17.0739C8.73759 17.0123 8.71764 16.9396 8.721 16.866V12.144H0.366C0.317827 12.146 0.269752 12.1382 0.224707 12.121C0.179662 12.1038 0.138591 12.0776 0.104 12.044C0.0699826 12.0093 0.0434651 11.9679 0.0260913 11.9225C0.0087175 11.8771 0.000857831 11.8286 0.00299963 11.78V5.968C0.00100259 5.91983 0.0088394 5.87175 0.0260321 5.82671C0.0432248 5.78166 0.0694131 5.74059 0.103 5.706C0.137591 5.67242 0.178662 5.64623 0.223707 5.62903C0.268752 5.61184 0.316827 5.604 0.365 5.606H8.721V0.886001C8.71742 0.812782 8.73692 0.740287 8.77676 0.678746C8.81659 0.617205 8.87474 0.569724 8.943 0.543002C9.01027 0.514231 9.08463 0.506284 9.15646 0.520188C9.2283 0.534092 9.29432 0.569207 9.346 0.621002Z" fill="white"/>
</svg>
